<svg xmlns="http://www.w3.org/2000/svg" width="200" height="80" viewBox="0 0 200 80">
  <!-- Vivo Logo -->
  <g fill="#E40428">
    <!-- Símbolo Vivo -->
    <path d="M40,15 C26.745,15 16,25.745 16,39 C16,52.255 26.745,63 40,63 C53.255,63 64,52.255 64,39 C64,25.745 53.255,15 40,15 Z M40,55 C31.163,55 24,47.837 24,39 C24,30.163 31.163,23 40,23 C48.837,23 56,30.163 56,39 C56,47.837 48.837,55 40,55 Z"/>
    <!-- Pessoa Vivo -->
    <path d="M40,30 C36.686,30 34,32.686 34,36 C34,39.314 36.686,42 40,42 C43.314,42 46,39.314 46,36 C46,32.686 43.314,30 40,30 Z"/>
    <path d="M48,44 L32,44 C29.791,44 28,45.791 28,48 L28,52 L52,52 L52,48 C52,45.791 50.209,44 48,44 Z"/>
  </g>
  <!-- Texto Vivo -->
  <g fill="#0C479D">
    <path d="M80,30 L88,50 L96,30 L102,30 L90,58 L86,58 L74,30 L80,30 Z"/>
    <path d="M106,30 L112,30 L112,58 L106,58 L106,30 Z"/>
    <path d="M118,30 L124,30 L124,50 C124,52.209 125.791,54 128,54 C130.209,54 132,52.209 132,50 L132,30 L138,30 L138,50 C138,55.523 133.523,60 128,60 C122.477,60 118,55.523 118,50 L118,30 Z"/>
    <path d="M144,30 L150,30 L150,54 L164,54 L164,58 L144,58 L144,30 Z"/>
  </g>
</svg>